<?xml version="1.0" encoding="UTF-8" standalone="no"?>
<svg
   xmlns:dc="http://purl.org/dc/elements/1.1/"
   xmlns:cc="http://creativecommons.org/ns#"
   xmlns:rdf="http://www.w3.org/1999/02/22-rdf-syntax-ns#"
   xmlns:svg="http://www.w3.org/2000/svg"
   xmlns="http://www.w3.org/2000/svg"
   xmlns:sodipodi="http://sodipodi.sourceforge.net/DTD/sodipodi-0.dtd"
   xmlns:inkscape="http://www.inkscape.org/namespaces/inkscape"
   enable-background="new 0 0 32 32"
   height="32px"
   id="Layer_1"
   version="1.1"
   viewBox="0 0 32 32"
   width="32px"
   xml:space="preserve"
   sodipodi:docname="delete.svg"
   inkscape:version="0.92.3 (2405546, 2018-03-11)"><metadata
     id="metadata4664"><rdf:RDF><cc:Work
         rdf:about=""><dc:format>image/svg+xml</dc:format><dc:type
           rdf:resource="http://purl.org/dc/dcmitype/StillImage" /><dc:title /></cc:Work></rdf:RDF></metadata><defs
     id="defs4662" /><sodipodi:namedview
     pagecolor="#ffffff"
     bordercolor="#666666"
     borderopacity="1"
     objecttolerance="10"
     gridtolerance="10"
     guidetolerance="10"
     inkscape:pageopacity="0"
     inkscape:pageshadow="2"
     inkscape:window-width="1920"
     inkscape:window-height="1026"
     id="namedview4660"
     showgrid="false"
     inkscape:zoom="10.429825"
     inkscape:cx="-29.413249"
     inkscape:cy="38.504767"
     inkscape:window-x="0"
     inkscape:window-y="26"
     inkscape:window-maximized="1"
     inkscape:current-layer="trash" /><g
     id="trash"><path
       d="M29.98,6.819c-0.096-1.57-1.387-2.816-2.98-2.816h-3v-1V3.001   c0-1.657-1.344-3-3-3H11c-1.657,0-3,1.343-3,3v0.001v1H5c-1.595,0-2.885,1.246-2.981,2.816H2v1.183v1c0,1.104,0.896,2,2,2l0,0v17   c0,2.209,1.791,4,4,4h16c2.209,0,4-1.791,4-4v-17l0,0c1.104,0,2-0.896,2-2v-1V6.819H29.98z M10,3.002c0-0.553,0.447-1,1-1h10   c0.553,0,1,0.447,1,1v1H10V3.002z M26,28.002c0,1.102-0.898,2-2,2H8c-1.103,0-2-0.898-2-2v-17h20V28.002z M28,8.001v1H4v-1V7.002   c0-0.553,0.447-1,1-1h22c0.553,0,1,0.447,1,1V8.001z"
       id="path4650"
       style="fill:#cccccc"
       clip-rule="evenodd"
       fill-rule="evenodd"
       fill="#333333" /><g
       id="g849"
       transform="translate(0.2758635)"><path
         inkscape:connector-curvature="0"
         id="path819"
         d="M 10.259041,13.687133 V 26.151388"
         style="fill:#cccccc;fill-rule:evenodd;stroke:#d2d2d2;stroke-width:1.43799996;stroke-linecap:butt;stroke-linejoin:miter;stroke-miterlimit:4;stroke-dasharray:none;stroke-opacity:1" /><path
         inkscape:connector-curvature="0"
         id="path819-0"
         d="M 15.724137,13.687133 V 26.151388"
         style="fill:#cccccc;fill-rule:evenodd;stroke:#d2d2d2;stroke-width:1.43799996;stroke-linecap:butt;stroke-linejoin:miter;stroke-miterlimit:4;stroke-dasharray:none;stroke-opacity:1" /><path
         inkscape:connector-curvature="0"
         id="path819-7"
         d="M 21.189232,13.687133 V 26.151388"
         style="fill:#cccccc;fill-rule:evenodd;stroke:#d2d2d2;stroke-width:1.43799996;stroke-linecap:butt;stroke-linejoin:miter;stroke-miterlimit:4;stroke-dasharray:none;stroke-opacity:1" /></g></g></svg>