<svg id="SVGRoot" width="32px" height="32px" version="1.1" viewBox="0 0 32 32" xmlns="http://www.w3.org/2000/svg">
 <g fill="#ccc">
  <path d="m24.63 0.52566c-0.13951 0-0.2419 0.11162-0.25084 0.25084l-0.07624 1.1903a4.7533 4.7533 0 0 0-1.7756 1.028l-1.0796-0.53365c-0.12081-0.069749-0.27454-0.027375-0.34429 0.093451l-1.0894 1.8862c-0.06977 0.12082-0.0247 0.2663 0.09098 0.34429l1.0009 0.67383a4.7533 4.7533 0 0 0-0.12542 1.0353 4.7533 4.7533 0 0 0 0.12297 1.0181l-0.99845 0.66645c-0.12081 0.069756-0.16075 0.22101-0.09098 0.34183l1.0894 1.8887c0.06976 0.12082 0.21891 0.15218 0.34429 0.091l1.0673-0.52136a4.7533 4.7533 0 0 0 1.7879 1.0403l0.07624 1.1903c0 0.13951 0.11133 0.25084 0.25084 0.25084h2.1789c0.13951 0 0.24115-0.11166 0.25084-0.25084l0.08115-1.1829a4.7533 4.7533 0 0 0 1.8075-1.0427l1.0575 0.51644c0.12083 0.06976 0.27454 0.02983 0.34429-0.091l1.0894-1.8887c0.06974-0.12081 0.02511-0.26448-0.091-0.34183l-0.98614-0.65661a4.7533 4.7533 0 0 0 0.12542-1.028 4.7533 4.7533 0 0 0-0.12788-1.0427l0.98861-0.66645c0.12082-0.069755 0.16074-0.22347 0.091-0.34429l-1.0894-1.8862c-0.069755-0.12081-0.21925-0.15532-0.34429-0.093451l-1.0698 0.52873a4.7533 4.7533 0 0 0-1.7952-1.0304l-0.08115-1.1829c0-0.13951-0.11133-0.25084-0.25084-0.25084zm1.0968 3.3249a2.6428 2.6428 0 0 1 2.6437 2.6412 2.6428 2.6428 0 0 1-2.6437 2.6437 2.6428 2.6428 0 0 1-2.6437-2.6437 2.6428 2.6428 0 0 1 2.6437-2.6412z" stroke-width="1.2591"/>
  <path d="m9.7279 7.8572c-0.27608 0-0.47869 0.22088-0.49638 0.49638l-0.15087 2.3554a9.4062 9.4062 0 0 0-3.5136 2.0342l-2.1364-1.056c-0.23907-0.13803-0.54328-0.05417-0.68131 0.18493l-2.1559 3.7326c-0.13806 0.2391-0.048853 0.52698 0.18005 0.68131l1.9807 1.3334a9.4062 9.4062 0 0 0-0.24819 2.0488 9.4062 9.4062 0 0 0 0.24333 2.0147l-1.9758 1.3188c-0.23907 0.13803-0.3181 0.43734-0.18005 0.67644l2.1559 3.7375c0.13803 0.2391 0.43319 0.30115 0.68131 0.18007l2.1121-1.0317a9.4062 9.4062 0 0 0 3.538 2.0585l0.15087 2.3554c0 0.27607 0.22031 0.49638 0.49638 0.49638h4.3117c0.27608 0 0.4772-0.22096 0.49638-0.49638l0.16059-2.3408a9.4062 9.4062 0 0 0 3.5769-2.0634l2.0926 1.022c0.2391 0.13803 0.54327 0.05904 0.68131-0.18007l2.1559-3.7375c0.13802-0.23907 0.04968-0.52338-0.18007-0.67644l-1.9515-1.2994a9.4062 9.4062 0 0 0 0.24819-2.0342 9.4062 9.4062 0 0 0-0.25306-2.0634l1.9563-1.3188c0.2391-0.13803 0.3181-0.44221 0.18007-0.68131l-2.1559-3.7326c-0.13803-0.23908-0.43386-0.30737-0.68131-0.18493l-2.1169 1.0463a9.4062 9.4062 0 0 0-3.5526-2.0391l-0.16058-2.3408c0-0.27607-0.22031-0.49638-0.49638-0.49638zm2.1705 6.5795a5.2297 5.2297 0 0 1 5.2315 5.2266 5.2297 5.2297 0 0 1-5.2315 5.2315 5.2297 5.2297 0 0 1-5.2315-5.2315 5.2297 5.2297 0 0 1 5.2315-5.2266z" stroke-width="2.4916"/>
 </g>
</svg>
