<?xml version="1.0" encoding="UTF-8" standalone="no"?>
<svg xmlns="http://www.w3.org/2000/svg" xmlns:xlink="http://www.w3.org/1999/xlink"  version="1.2" baseProfile="tiny">
<title>pyqtgraph SVG export</title>
<desc>Generated with Qt and pyqtgraph</desc>
<defs>
</defs>
<g fill="none" fill-rule="evenodd" id="PlotItem_1" stroke="black" stroke-linecap="square" stroke-linejoin="bevel" stroke-width="1">
    <g fill="none" fill-rule="evenodd" id="AxisItem_1" stroke="black" stroke-linecap="square" stroke-linejoin="bevel" stroke-width="1">
        <g fill="none" font-family=".Lucida Grande UI" font-size="13" font-style="normal" font-weight="400" stroke="#000000" stroke-linecap="square" stroke-linejoin="bevel" stroke-opacity="1" stroke-width="1">
            <polyline fill="none" points="52.8,284.2 581.0,284.2" vector-effect="non-scaling-stroke"/>
        </g>
        <g fill="none" font-family=".Lucida Grande UI" font-size="13" font-style="normal" font-weight="400" stroke="#000000" stroke-linecap="square" stroke-linejoin="bevel" stroke-opacity="1" stroke-width="1">
            <polyline fill="none" points="75.5647,284.2 75.5647,279.2" vector-effect="non-scaling-stroke"/>
            <polyline fill="none" points="564.964,284.2 564.964,279.2" vector-effect="non-scaling-stroke"/>
        </g>
        <g fill="none" font-family=".Lucida Grande UI" font-size="13" font-style="normal" font-weight="400" stroke="#000000" stroke-linecap="square" stroke-linejoin="bevel" stroke-opacity="0.498039" stroke-width="1">
            <polyline fill="none" points="173.445,284.2 173.445,280.86667" vector-effect="non-scaling-stroke"/>
            <polyline fill="none" points="271.325,284.2 271.325,280.86667" vector-effect="non-scaling-stroke"/>
            <polyline fill="none" points="369.204,284.2 369.204,280.86667" vector-effect="non-scaling-stroke"/>
            <polyline fill="none" points="467.084,284.2 467.084,280.86667" vector-effect="non-scaling-stroke"/>
        </g>
        <g fill="none" font-family=".Lucida Grande UI" font-size="13" font-style="normal" font-weight="400" stroke="#000000" stroke-linecap="square" stroke-linejoin="bevel" stroke-opacity="0.333333" stroke-width="1">
            <polyline fill="none" points="124.5046,284.2 124.5046,281.7" vector-effect="non-scaling-stroke"/>
            <polyline fill="none" points="222.385,284.2 222.385,281.7" vector-effect="non-scaling-stroke"/>
            <polyline fill="none" points="320.265,284.2 320.265,281.7" vector-effect="non-scaling-stroke"/>
            <polyline fill="none" points="418.144,284.2 418.144,281.7" vector-effect="non-scaling-stroke"/>
            <polyline fill="none" points="516.024,284.2 516.024,281.7" vector-effect="non-scaling-stroke"/>
        </g>
        <g fill="none" font-family=".Lucida Grande UI" font-size="13" font-style="normal" font-weight="400" stroke="#000000" stroke-linecap="square" stroke-linejoin="bevel" stroke-opacity="1" stroke-width="1" transform="matrix(1,0,0,1,53.3,284.2)">
            <text fill="#000000" fill-opacity="1" font-family="&quot;.Lucida Grande UI&quot;, sans-serif" font-size="13" font-style="normal" font-weight="400" stroke="none" x="18.6406" xml:space="preserve" y="11">0</text>
            <text fill="#000000" fill-opacity="1" font-family="&quot;.Lucida Grande UI&quot;, sans-serif" font-size="13" font-style="normal" font-weight="400" stroke="none" x="504.438" xml:space="preserve" y="11">10</text>
            <text fill="#000000" fill-opacity="1" font-family="&quot;.Lucida Grande UI&quot;, sans-serif" font-size="13" font-style="normal" font-weight="400" stroke="none" x="116.531" xml:space="preserve" y="11">2</text>
            <text fill="#000000" fill-opacity="1" font-family="&quot;.Lucida Grande UI&quot;, sans-serif" font-size="13" font-style="normal" font-weight="400" stroke="none" x="214.406" xml:space="preserve" y="11">4</text>
            <text fill="#000000" fill-opacity="1" font-family="&quot;.Lucida Grande UI&quot;, sans-serif" font-size="13" font-style="normal" font-weight="400" stroke="none" x="312.281" xml:space="preserve" y="11">6</text>
            <text fill="#000000" fill-opacity="1" font-family="&quot;.Lucida Grande UI&quot;, sans-serif" font-size="13" font-style="normal" font-weight="400" stroke="none" x="410.172" xml:space="preserve" y="11">8</text>
            <text fill="#000000" fill-opacity="1" font-family="&quot;.Lucida Grande UI&quot;, sans-serif" font-size="13" font-style="normal" font-weight="400" stroke="none" x="67.5938" xml:space="preserve" y="11">1</text>
            <text fill="#000000" fill-opacity="1" font-family="&quot;.Lucida Grande UI&quot;, sans-serif" font-size="13" font-style="normal" font-weight="400" stroke="none" x="165.469" xml:space="preserve" y="11">3</text>
            <text fill="#000000" fill-opacity="1" font-family="&quot;.Lucida Grande UI&quot;, sans-serif" font-size="13" font-style="normal" font-weight="400" stroke="none" x="263.344" xml:space="preserve" y="11">5</text>
            <text fill="#000000" fill-opacity="1" font-family="&quot;.Lucida Grande UI&quot;, sans-serif" font-size="13" font-style="normal" font-weight="400" stroke="none" x="361.234" xml:space="preserve" y="11">7</text>
            <text fill="#000000" fill-opacity="1" font-family="&quot;.Lucida Grande UI&quot;, sans-serif" font-size="13" font-style="normal" font-weight="400" stroke="none" x="459.109" xml:space="preserve" y="11">9</text>
        </g>
        <g fill="none" fill-rule="evenodd" id="QGraphicsTextItem_1" stroke="black" stroke-linecap="square" stroke-linejoin="bevel" stroke-width="1">
            


            <g fill="none" font-family=".Lucida Grande UI" font-size="13" font-style="normal" font-weight="400" stroke="#000000" stroke-linecap="square" stroke-linejoin="bevel" stroke-opacity="1" stroke-width="1" transform="matrix(1,0,0,1,295.8,304.2)">
                <text fill="#000000" fill-opacity="1" font-family="&quot;.Lucida Grande UI&quot;, sans-serif" font-size="13" font-style="normal" font-weight="400" stroke="none" x="4" xml:space="preserve" y="14">Q (A</text>
                <text fill="#000000" fill-opacity="1" font-family="&quot;.Lucida Grande UI&quot;, sans-serif" font-size="8" font-style="normal" font-weight="400" stroke="none" x="30.7031" xml:space="preserve" y="10.5156">-1</text>
                <text fill="#000000" fill-opacity="1" font-family="&quot;.Lucida Grande UI&quot;, sans-serif" font-size="13" font-style="normal" font-weight="400" stroke="none" x="37.7969" xml:space="preserve" y="14">)</text>
            </g>
            


            

        </g>
    </g>
    <g fill="none" fill-rule="evenodd" id="AxisItem_2" stroke="black" stroke-linecap="square" stroke-linejoin="bevel" stroke-width="1">
        <g fill="none" font-family=".Lucida Grande UI" font-size="13" font-style="normal" font-weight="400" stroke="#000000" stroke-linecap="square" stroke-linejoin="bevel" stroke-opacity="1" stroke-width="1">
            <polyline fill="none" points="52.8,1.0 52.8,284.2" vector-effect="non-scaling-stroke"/>
        </g>
        <g fill="none" font-family=".Lucida Grande UI" font-size="13" font-style="normal" font-weight="400" stroke="#000000" stroke-linecap="square" stroke-linejoin="bevel" stroke-opacity="1" stroke-width="1">
            <polyline fill="none" points="53.3,267.907 58.3,267.907" vector-effect="non-scaling-stroke"/>
        </g>
        <g fill="none" font-family=".Lucida Grande UI" font-size="13" font-style="normal" font-weight="400" stroke="#000000" stroke-linecap="square" stroke-linejoin="bevel" stroke-opacity="0.498039" stroke-width="1">
            <polyline fill="none" points="53.3,129.823 56.6333,129.823" vector-effect="non-scaling-stroke"/>
        </g>
        <g fill="none" font-family=".Lucida Grande UI" font-size="13" font-style="normal" font-weight="400" stroke="#000000" stroke-linecap="square" stroke-linejoin="bevel" stroke-opacity="0.333333" stroke-width="1">
            <polyline fill="none" points="53.3,240.29 55.8,240.29" vector-effect="non-scaling-stroke"/>
            <polyline fill="none" points="53.3,212.674 55.8,212.674" vector-effect="non-scaling-stroke"/>
            <polyline fill="none" points="53.3,185.057 55.8,185.057" vector-effect="non-scaling-stroke"/>
            <polyline fill="none" points="53.3,157.44 55.8,157.44" vector-effect="non-scaling-stroke"/>
            <polyline fill="none" points="53.3,102.206 55.8,102.206" vector-effect="non-scaling-stroke"/>
            <polyline fill="none" points="53.3,74.5892 55.8,74.5892" vector-effect="non-scaling-stroke"/>
            <polyline fill="none" points="53.3,46.9724 55.8,46.9724" vector-effect="non-scaling-stroke"/>
            <polyline fill="none" points="53.3,19.3555 55.8,19.3555" vector-effect="non-scaling-stroke"/>
        </g>
        <g fill="none" font-family=".Lucida Grande UI" font-size="13" font-style="normal" font-weight="400" stroke="#000000" stroke-linecap="square" stroke-linejoin="bevel" stroke-opacity="1" stroke-width="1" transform="matrix(1,0,0,1,1.5,1)">
            <text fill="#000000" fill-opacity="1" font-family="&quot;.Lucida Grande UI&quot;, sans-serif" font-size="13" font-style="normal" font-weight="400" stroke="none" x="39.5781" xml:space="preserve" y="270.703">0</text>
            <text fill="#000000" fill-opacity="1" font-family="&quot;.Lucida Grande UI&quot;, sans-serif" font-size="13" font-style="normal" font-weight="400" stroke="none" x="17.9219" xml:space="preserve" y="132.609">1000</text>
            <text fill="#000000" fill-opacity="1" font-family="&quot;.Lucida Grande UI&quot;, sans-serif" font-size="13" font-style="normal" font-weight="400" stroke="none" x="25.1406" xml:space="preserve" y="243.078">200</text>
            <text fill="#000000" fill-opacity="1" font-family="&quot;.Lucida Grande UI&quot;, sans-serif" font-size="13" font-style="normal" font-weight="400" stroke="none" x="25.1406" xml:space="preserve" y="215.469">400</text>
            <text fill="#000000" fill-opacity="1" font-family="&quot;.Lucida Grande UI&quot;, sans-serif" font-size="13" font-style="normal" font-weight="400" stroke="none" x="25.1406" xml:space="preserve" y="187.844">600</text>
            <text fill="#000000" fill-opacity="1" font-family="&quot;.Lucida Grande UI&quot;, sans-serif" font-size="13" font-style="normal" font-weight="400" stroke="none" x="25.1406" xml:space="preserve" y="160.234">800</text>
            <text fill="#000000" fill-opacity="1" font-family="&quot;.Lucida Grande UI&quot;, sans-serif" font-size="13" font-style="normal" font-weight="400" stroke="none" x="17.9219" xml:space="preserve" y="105">1200</text>
            <text fill="#000000" fill-opacity="1" font-family="&quot;.Lucida Grande UI&quot;, sans-serif" font-size="13" font-style="normal" font-weight="400" stroke="none" x="17.9219" xml:space="preserve" y="77.375">1400</text>
            <text fill="#000000" fill-opacity="1" font-family="&quot;.Lucida Grande UI&quot;, sans-serif" font-size="13" font-style="normal" font-weight="400" stroke="none" x="17.9219" xml:space="preserve" y="49.7656">1600</text>
            <text fill="#000000" fill-opacity="1" font-family="&quot;.Lucida Grande UI&quot;, sans-serif" font-size="13" font-style="normal" font-weight="400" stroke="none" x="17.9219" xml:space="preserve" y="22.1406">1800</text>
        </g>
        <g fill="none" fill-rule="evenodd" id="QGraphicsTextItem_2" stroke="black" stroke-linecap="square" stroke-linejoin="bevel" stroke-width="1">
            


            <g fill="none" font-family=".Lucida Grande UI" font-size="13" font-style="normal" font-weight="400" stroke="#000000" stroke-linecap="square" stroke-linejoin="bevel" stroke-opacity="1" stroke-width="1" transform="matrix(0,-1,1,0,-4,172)">
                <text fill="#000000" fill-opacity="1" font-family="&quot;.Lucida Grande UI&quot;, sans-serif" font-size="13" font-style="normal" font-weight="400" stroke="none" x="4" xml:space="preserve" y="14">Intensity </text>
            </g>
            


            

        </g>
    </g>
    <g fill="none" fill-rule="evenodd" id="ViewBox_1" stroke="black" stroke-linecap="square" stroke-linejoin="bevel" stroke-width="1">
        <g fill="none" font-family=".Lucida Grande UI" font-size="13" font-style="normal" font-weight="400" stroke="none">
            <path d="M52.8,1.0 L581.0,1.0 L581.0,284.2 L52.8,284.2 L52.8,1.0 " fill-rule="evenodd" vector-effect="non-scaling-stroke"/>
        </g>
        <clipPath id="ViewBox_1_clip">
            <path d="M52.8,1.0 L581.0,1.0 L581.0,284.2 L52.8,284.2 L52.8,1.0 " fill-rule="evenodd" vector-effect="non-scaling-stroke"/>
        </clipPath>
        <g clip-path="url(#ViewBox_1_clip)">
            <g fill="none" fill-rule="evenodd" id="ChildGroup_1" stroke="black" stroke-linecap="square" stroke-linejoin="bevel" stroke-width="1">
                <g id="PlotDataItem_1">
                    <g fill="none" fill-rule="evenodd" id="PlotCurveItem_1" stroke="black" stroke-linecap="square" stroke-linejoin="bevel" stroke-width="1">
                        <g fill="none" font-family=".Lucida Grande UI" font-size="13" font-style="normal" font-weight="400" stroke="#000000" stroke-linecap="square" stroke-linejoin="bevel" stroke-opacity="1" stroke-width="1">
                            <path d="M75.2374396028,264.078855843 L75.582920766,263.874132504 L75.928398014,263.73574472 L76.273875262,263.84180704 L76.619357404,263.894872721 L76.964834652,263.941558922 L77.310316794,263.99240145 L77.655794042,263.8731383 L78.001276184,263.877087502 L78.346753432,263.948877374 L78.69223068,263.89281527 L79.037712822,263.891710598 L79.38319007,263.88625628 L79.728672212,263.832279244 L80.07414946,263.80582235 L80.41961692,263.878509767 L80.76508438,263.823869928 L81.11060078,263.790260283 L81.45606824,263.844665379 L81.8015357,263.727694422 L82.14700316,263.701071827 L82.49251956,263.686103522 L82.83798702,263.672184654 L83.18345448,263.725250336 L83.52892194,263.697205475 L83.87443834,263.650864485 L84.2199058,263.627638756 L84.56537326,263.612366666 L84.91084072,263.653211913 L85.25635712,263.701347995 L85.60182458,263.669022531 L85.94729204,263.660557982 L86.2927595,263.638298841 L86.6382759,263.582457671 L86.98374336,263.507077616 L87.32921082,263.473702713 L87.67467828,263.493876785 L88.02019468,263.496486573 L88.36566214,263.445174558 L88.7111296,263.416577362 L89.05659706,263.379681317 L89.40211346,263.309658921 L89.74758092,263.28601894 L90.09304838,263.279225207 L90.43851584,263.245090842 L90.7839833,263.181806945 L91.1294997,263.139277073 L91.47496716,263.096457225 L91.82043462,263.054148287 L92.16590208,262.949342531 L92.51141848,262.83957956 L92.85688594,262.774321061 L93.2023534,262.739441043 L93.54782086,262.654477958 L93.89333726,262.610194419 L94.23880472,262.578283206 L94.58427218,262.501936563 L94.92973964,262.344244635 L95.27525604,262.214708034 L95.6207235,261.989603498 L95.96619096,261.528430554 L96.31165842,260.846033235 L96.65717482,259.911384064 L97.00264228,258.752237926 L97.34810974,257.389335038 L97.6935772,255.870162486 L98.0390936,254.096666824 L98.38456106,251.906930752 L98.73002852,249.395873212 L99.07549598,246.625908172 L99.42101238,243.554367676 L99.76647984,240.469294948 L100.1119473,237.177234304 L100.45741476,233.618533456 L100.80288222,230.19556918 L101.14839862,226.858631236 L101.49386608,223.347017032 L101.83933354,220.16169532 L102.184801,217.139450812 L102.5303174,214.105883416 L102.87578486,211.567623328 L103.22125232,209.081973244 L103.56671978,206.36710372 L103.91223618,203.917079308 L104.25770364,201.487491328 L104.6031711,199.137301648 L104.94863856,197.03745826 L105.29415496,195.199145968 L105.63962242,193.280468788 L105.98508988,191.426829172 L106.33055734,189.975566332 L106.67607374,188.754627604 L107.0215412,187.647608176 L107.36700866,186.491154676 L107.71247612,185.487007828 L108.05799252,184.534780564 L108.40345998,183.569159152 L108.74892744,182.668022968 L109.0943949,181.848632512 L109.43986236,181.311900004 L109.78537876,181.022614024 L110.13084622,180.590687272 L110.47631368,180.096346552 L110.82178114,179.87361706 L111.16729754,179.915180344 L111.512765,179.916285016 L111.85823246,179.868369868 L112.20369992,179.854009132 L112.54921632,180.091375528 L112.89468378,180.08833768 L113.24015124,180.200047636 L113.5856187,180.558375616 L113.9311351,180.822668392 L114.27660256,180.847385428 L114.62207002,180.926369476 L114.96753748,181.272960316 L115.31305388,181.663047616 L115.65852134,181.895581072 L116.0039888,182.221597396 L116.34945626,182.501769832 L116.69497266,182.93977228 L117.04044012,183.528838624 L117.38590758,183.818124604 L117.73137504,184.09760662 L118.07689144,184.495702792 L118.4223589,184.892556208 L118.76782636,185.382063988 L119.11329382,185.759033308 L119.45876128,186.202421032 L119.80427768,186.654369964 L120.14974514,187.079392516 L120.4952126,187.5352078 L120.84068006,187.812204304 L121.18619646,188.285832424 L121.53166392,188.835820996 L121.87713138,189.318976912 L122.22259884,189.732400408 L122.56811524,190.11806902 L122.9135827,190.397965288 L123.25905016,190.963971604 L123.60451762,191.692502788 L123.95003402,192.023904388 L124.2954036,192.366352708 L124.64092,192.869945056 L124.9864364,193.17455836 L125.3319528,193.53702886 L125.6774692,194.049044332 L126.0229856,194.6776027 L126.368502,195.166281976 L126.7140184,195.515496412 L127.0595348,195.939966628 L127.4050512,196.263635524 L127.7500782,196.692524428 L128.0955946,197.099043724 L128.441111,197.36471734 L128.7866274,197.790982648 L129.1321438,198.189493072 L129.4776602,198.523380184 L129.8231766,198.90228268 L130.168693,199.357545628 L130.5142094,199.821784036 L130.8597258,200.245425748 L131.2052422,200.538716164 L131.5507586,200.885583172 L131.896275,201.3125389 L132.241302,201.770701612 L132.5868184,201.961119448 L132.9323348,202.201661776 L133.2778512,202.572003064 L133.6233676,202.73894662 L133.968884,202.957257424 L134.3144004,203.222654872 L134.6599168,203.663142832 L135.0054332,204.089960476 L135.3509496,204.388083832 L135.696466,204.643401148 L136.0419824,204.906036916 L136.3874988,205.172124784 L136.7325258,205.439317324 L137.0780422,205.767404908 L137.4235586,206.248627648 L137.769075,206.603641612 L138.1145914,206.843079268 L138.4601078,207.058490308 L138.8056242,207.275972608 L139.1511406,207.63954778 L139.496657,207.916820452 L139.8421734,208.126431964 L140.1876898,208.386306052 L140.5332062,208.596607984 L140.8787226,208.837150312 L141.2237496,209.162890468 L141.569266,209.50299136 L141.9147824,209.71080778 L142.2602988,209.789239492 L142.6058152,209.845992016 L142.9513316,209.900535196 L143.296848,210.170075164 L143.6423644,210.484354348 L143.9878808,210.610010788 L144.3333972,210.684161896 L144.6789136,210.865466188 L145.02443,211.146467128 L145.3699464,211.176845608 L145.7149734,211.089300352 L146.0604898,210.924842308 L146.4060062,210.586398424 L146.7515226,210.073830616 L147.097039,209.210115196 L147.4425554,207.537503704 L147.7880718,203.754002104 L148.1335882,184.957455688 L148.4791046,128.18532376 L148.824621,37.87010272 L149.1701374,17.29282504 L149.5156538,94.20975556 L149.8611702,184.215254188 L150.2061972,202.744746148 L150.5517136,208.478269996 L150.89723,211.32224806 L151.2427464,213.016262572 L151.5882628,213.995001964 L151.9337792,214.76123008 L152.2792956,215.446540972 L152.624812,215.95427584 L152.9703284,216.24425224 L153.3158448,216.585733972 L153.6613612,216.967536232 L154.0068776,217.29852358 L154.352394,217.549422208 L154.6979104,217.811367556 L155.0429374,217.9965382 L155.3884538,218.195517244 L155.7339702,218.423355844 L156.0794866,218.66210308 L156.425003,218.909687692 L156.7705194,219.06530836 L157.1160358,219.273677116 L157.4615522,219.582571024 L157.8070686,219.742472296 L158.152585,219.855977344 L158.4981014,220.009941004 L158.8436178,220.224661624 L159.1891342,220.401132976 L159.5341612,220.494753928 L159.8796776,220.645127404 L160.225194,220.920190732 L160.5707104,221.115441508 L160.9162268,221.235022252 L161.2617432,221.227979968 L161.6072596,221.273823856 L161.952776,221.571671044 L162.2982924,221.874489256 L162.6438088,222.02306764 L162.9893252,222.07277788 L163.3348416,222.145133896 L163.680358,222.206167024 L164.025385,222.296197792 L164.3709014,222.337346824 L164.7164178,222.509399488 L165.0619342,222.729229216 L165.4074506,222.875460172 L165.752967,222.858613924 L166.0984834,222.827821192 L166.4439998,222.777420532 L166.7895162,222.729229216 L167.1350326,222.760021948 L167.480549,222.954306136 L167.8260654,223.216251484 L168.1715818,223.4750209 L168.5166088,223.657567948 L168.8621252,223.769001736 L169.2076416,223.911090172 L169.553158,224.00457304 L169.8986744,224.068367848 L170.2441908,224.198442976 L170.5897072,224.388722728 L170.9352236,224.444232496 L171.28074,224.507474968 L171.6262564,224.52998266 L171.9717728,224.589082612 L172.3172892,224.483586436 L172.6628056,224.504160952 L173.0078326,224.407916404 L173.353349,224.409573412 L173.6988654,224.439261472 L174.0443818,224.458317064 L174.3898982,224.545586152 L174.7354146,224.618494504 L175.080931,224.561189644 L175.4264474,224.422691392 L175.7719638,224.233516312 L176.1174802,224.019486112 L176.4629966,223.570022692 L176.808513,222.801999484 L177.1540294,221.701608088 L177.4995458,219.938275408 L177.8445728,217.021250908 L178.1900892,211.979113648 L178.5356056,201.007787512 L178.881122,169.267523104 L179.2266384,106.58208196 L179.5721548,43.9968898 L179.9176712,61.04888296 L180.2631876,139.748339836 L180.608704,189.170260444 L180.9542204,206.914054444 L181.2997368,215.063772124 L181.6452532,219.55619698 L181.9907696,222.283494064 L182.3357966,224.040198712 L182.681313,225.242910352 L183.0268294,226.125957532 L183.3723458,226.85048428 L183.7178622,227.448802252 L184.0633786,227.925606304 L184.408895,228.305337304 L184.7544114,228.719175052 L185.0999278,228.969659428 L185.4454442,229.0950397 L185.7909606,229.293604492 L186.136477,229.424508124 L186.4819934,229.548783724 L186.8270204,229.798715764 L187.1725368,230.08026904 L187.5180532,230.262816088 L187.8635696,230.389715284 L188.209086,230.524623352 L188.5546024,230.65953142 L188.9001188,230.814599752 L189.2456352,231.003636748 L189.5911516,231.2215333 L189.936668,231.37549696 L190.2821844,231.424102528 L190.6277008,231.581518288 L190.9732172,231.743076568 L191.3182442,231.808252216 L191.6637606,231.926175952 L192.009277,232.05832234 L192.3547934,232.148491192 L192.7003098,232.270557448 L193.0458262,232.37936764 L193.3913426,232.463875048 L193.736859,232.60858708 L194.0823754,232.682738188 L194.4278918,232.782711004 L194.7734082,232.832145076 L195.1189246,232.93308448 L195.464441,233.003231152 L195.809468,233.000607556 L196.1549844,233.02905286 L196.5005008,233.085805384 L196.8460172,233.216294764 L197.1915336,233.142005572 L197.53705,233.110660504 L197.8825664,233.144767252 L198.2280828,233.060259844 L198.5735992,232.979480704 L198.9191156,233.0338858 L199.264632,232.989146584 L199.6101484,232.750675516 L199.9556648,232.42700662 L200.3006918,231.999774724 L200.6462082,231.327305644 L200.9917246,230.274000892 L201.337241,228.678440272 L201.6827574,225.95086702 L202.0282738,218.545836352 L202.3737902,196.548502816 L202.7193066,160.555251208 L203.064823,122.6150152 L203.4103394,127.91882164 L203.7558558,165.234503716 L204.1013722,203.926054768 L204.4468886,221.951125876 L204.792405,227.12527144 L205.137432,229.55278816 L205.4829484,231.089801164 L205.8284648,232.129297516 L206.1739812,232.945650124 L206.5194976,233.482934968 L206.865014,233.82234544 L207.2105304,234.141043312 L207.5560468,234.386004328 L207.9015632,234.625718152 L208.2470796,234.753583936 L208.592596,234.75510286 L208.9381124,234.847342972 L209.2836288,234.942068596 L209.6286558,235.038036976 L209.9741722,235.076976664 L210.3196886,235.117297192 L210.665205,235.11135958 L211.0107214,235.221550612 L211.3562378,235.325942116 L211.7017542,235.282859908 L212.0472706,235.245715312 L212.392787,235.268361088 L212.7383034,235.302191668 L213.0838198,235.254828856 L213.4293362,235.253448016 L213.7748526,235.265461324 L214.1198796,235.22804056 L214.465396,235.238258776 L214.8109124,235.258280956 L215.1564288,235.187029612 L215.5019452,235.136628952 L215.8474616,235.133176852 L216.192978,235.113707008 L216.5384944,235.096584592 L216.8840108,234.970237732 L217.2295272,234.859080112 L217.5750436,234.831877564 L217.92056,234.819173836 L218.2660764,234.781753072 L218.6111034,234.658029808 L218.9566198,234.523674076 L219.3021362,234.385590076 L219.6476526,234.268632928 L219.993169,234.09782302 L220.3386854,233.83684426 L220.6842018,233.414583388 L221.0297182,232.720987456 L221.3752346,231.583727632 L221.720751,229.474908784 L222.0662674,222.817326808 L222.4117838,201.8476144 L222.7573002,170.376475708 L223.1023272,160.288058668 L223.4478436,189.035214292 L223.79336,217.554531316 L224.1388764,227.4104149 L224.4843928,230.391096124 L224.8299092,231.855891196 L225.1754256,232.742942812 L225.520942,233.265728836 L225.8664584,233.511518356 L226.2119748,233.652778288 L226.5574912,233.812955728 L226.9030076,234.07849126 L227.248524,234.395808292 L227.593551,234.706635376 L227.9390674,235.013734192 L228.2845838,235.2535861 L228.6301002,235.429919368 L228.9756166,235.504484728 L229.321133,235.606252636 L229.6666494,235.757730784 L230.0121658,235.90810426 L230.3576822,236.012771932 L230.7031986,236.065658104 L231.048715,236.074771648 L231.3942314,236.150855932 L231.7397478,236.317661404 L232.0852642,236.389050832 L232.4302912,236.386289152 L232.7758076,236.438761072 L233.121324,236.51774512 L233.4668404,236.607223552 L233.8123568,236.665495 L234.1578732,236.6723992 L234.5033896,236.61647518 L234.848906,236.574773812 L235.1944224,236.522025724 L235.5399388,236.430337948 L235.8854552,236.385598732 L236.2309716,236.23260166 L236.576488,236.060825164 L236.921515,235.792389868 L237.2670314,235.334779492 L237.6125478,234.67570456 L237.9580642,233.732728924 L238.3035806,232.191435316 L238.649097,229.60733134 L238.9946134,220.57318564 L239.3401298,197.806171888 L239.6856462,167.411674144 L240.0311626,123.7403998 L240.376679,85.34062024 L240.7221954,104.173897 L241.0677118,160.917721708 L241.4127388,195.197350876 L241.7582552,212.913942328 L242.1037716,224.747879212 L242.449288,231.10623316 L242.7948044,233.410440868 L243.1403208,234.92632702 L243.4858372,236.043702748 L243.8313536,236.879801368 L244.17687,237.450916792 L244.5223864,237.947328772 L244.8679028,238.351086388 L245.2134192,238.688287516 L245.5589356,238.94180974 L245.9039626,239.126704216 L246.249479,239.242280524 L246.5949954,239.362137436 L246.9405118,239.486689204 L247.2860282,239.576443804 L247.6315446,239.704309588 L247.977061,239.846536108 L248.3225774,239.96501218 L248.6680938,240.041372632 L249.0136102,240.105581692 L249.3591266,240.1106908 L249.704643,240.130160644 L250.0501594,240.167857576 L250.3951864,240.206521096 L250.7407028,240.262168948 L251.0862192,240.240765928 L251.4317356,240.193403116 L251.777252,240.173795188 L252.1227684,240.130298728 L252.4682848,240.035573104 L252.8138012,239.866420204 L253.1593176,239.607236536 L253.504834,239.216873068 L253.8503504,238.719356416 L254.1958668,237.838104328 L254.5413832,236.463754276 L254.8868996,234.099618112 L255.2319266,228.687829984 L255.577443,212.843657572 L255.9229594,185.626334584 L256.2684758,172.878557788 L256.6139922,192.557460964 L256.9595086,218.39629138 L257.305025,230.183279704 L257.6505414,234.469683232 L257.9960578,236.715067156 L258.3415742,238.134432592 L258.6870906,239.102401432 L259.032607,239.702790664 L259.3781234,240.137341012 L259.7231504,240.563192068 L260.0686668,240.891970072 L260.4141832,241.15184416 L260.7596996,241.35758932 L261.105216,241.518595264 L261.4507324,241.664411968 L261.7962488,241.763280112 L262.1417652,241.797248776 L262.4872816,241.807605076 L262.832798,241.815613948 L263.1783144,241.85469172 L263.5238308,241.921524376 L263.8693472,242.027849056 L264.2143742,242.12188426 L264.5598906,242.256101908 L264.905407,242.319758632 L265.2509234,242.353036876 L265.5964398,242.403437536 L265.9419562,242.465989588 L266.2874726,242.532407992 L266.632989,242.54165962 L266.9785054,242.559748624 L267.3240218,242.66455438 L267.6695382,242.747128612 L268.0150546,242.717164384 L268.360571,242.75016646 L268.705598,242.779716436 L269.0511144,242.744919268 L269.3966308,242.750442628 L269.7421472,242.768669716 L270.0876636,242.813408932 L270.43318,242.862428752 L270.7786964,242.870023372 L271.1242128,242.917662352 L271.4697292,242.94900742 L271.8152456,242.9586733 L272.160762,242.969858104 L272.5062784,242.994989392 L272.8517948,243.002584012 L273.1968218,242.981180992 L273.5423382,243.021225352 L273.8878546,243.072730684 L274.233371,243.066793072 L274.5788874,243.054503596 L274.9244038,243.0725926 L275.2699202,243.18720232 L275.6154366,243.26314852 L275.960953,243.255139648 L276.3064694,243.247545028 L276.6519858,243.306506896 L276.9975022,243.347794012 L277.3430186,243.330395428 L277.6880456,243.285518128 L278.033562,243.244092928 L278.3790784,243.219375892 L278.7245948,243.234703216 L279.0701112,243.24795928 L279.4156276,243.269086132 L279.761144,243.202115392 L280.1066604,243.148814968 L280.4521768,243.12368368 L280.7976932,243.03945244 L281.1432096,242.8930834 L281.488726,242.69562328 L281.8342424,242.398328428 L282.1797588,242.003270104 L282.5247858,241.423593472 L282.8703022,240.497049832 L283.2158186,238.732474396 L283.561335,233.391799528 L283.9068514,221.99821252 L284.2523678,213.198533452 L284.5978842,219.800329492 L284.9434006,231.855891196 L285.288917,238.085965108 L285.6344334,240.291028504 L285.9799498,241.356622732 L286.3254662,242.038895776 L286.6709826,242.467370428 L287.0160096,242.702941732 L287.361526,242.933680096 L287.7070424,243.099242812 L288.0525588,243.175603264 L288.3980752,243.235669804 L288.7435916,243.302088208 L289.089108,243.321005716 L289.4346244,243.39639958 L289.7801408,243.459089716 L290.1256572,243.48408292 L290.4711736,243.485187592 L290.81669,243.448457248 L291.1622064,243.392118976 L291.5072334,243.3660211 L291.8527498,243.283446868 L292.1982662,243.165523132 L292.5437826,243.032686324 L292.889299,242.915314924 L293.2348154,242.648812804 L293.5803318,242.29725094 L293.9258482,241.836878884 L294.2713646,241.154882008 L294.616881,240.221296084 L294.9623974,238.96735528 L295.3079138,237.053925292 L295.6534302,233.816683996 L295.9984572,227.591719192 L296.3439736,211.709849848 L296.68949,179.790904744 L297.0350064,160.041854896 L297.3805228,182.869901776 L297.7260392,213.799613104 L298.0715556,229.447015816 L298.417072,234.547700692 L298.7625884,237.303304996 L299.1081048,239.146450228 L299.4536212,240.421655968 L299.7991376,241.297798948 L300.144654,241.88368936 L300.489681,242.385900868 L300.8351974,242.75430898 L301.1807138,243.021639604 L301.5262302,243.257487076 L301.8717466,243.370992124 L302.217263,243.499134076 L302.5627794,243.630866212 L302.9082958,243.729596272 L303.2538122,243.80996116 L303.5993286,243.807061396 L303.944845,243.801952288 L304.2903614,243.754865644 L304.6358778,243.671600992 L304.9809048,243.531859984 L305.3264212,243.366297268 L305.6719376,243.143291608 L306.017454,242.802914548 L306.3629704,242.291451412 L306.7084868,241.53916978 L307.0540032,239.514996424 L307.3995196,233.503095232 L307.745036,228.32798308 L308.0905524,218.759314216 L308.4360688,206.280248884 L308.7815852,186.259863976 L309.1271016,176.0328106 L309.472618,194.280887368 L309.817645,218.103139048 L310.1631614,230.984166904 L310.5086778,237.388226656 L310.8541942,239.771418412 L311.1997106,241.095505888 L311.545227,242.041933624 L311.8907434,242.735943808 L312.2362598,243.19755862 L312.5817762,243.571490092 L312.9272926,243.806094808 L313.272809,244.008525952 L313.6183254,244.213304524 L313.9638418,244.292150488 L314.3088688,244.347384088 L314.6543852,244.396680076 L314.9999016,244.400822596 L315.345418,244.392399472 L315.6909344,244.392951808 L316.0364508,244.372377292 L316.3819672,244.355807212 L316.7274836,244.322805136 L317.073,244.1772646 L317.4185164,244.000655164 L317.7640328,243.773921236 L318.1095492,243.369611284 L318.4550656,242.769912472 L318.8000926,241.856210644 L319.145609,240.308565172 L319.4911254,237.218935672 L319.8366418,230.197916608 L320.1821582,219.554263804 L320.5276746,216.614179276 L320.873191,226.811406508 L321.2187074,235.914179956 L321.5642238,239.766447388 L321.9097402,241.514452744 L322.2552566,242.615396476 L322.600773,243.265357864 L322.9462894,243.755556064 L323.2913164,244.186101976 L323.6368328,244.478425804 L323.9823492,244.679614192 L324.3278656,244.852771528 L324.673382,245.00507818 L325.0188984,245.110574356 L325.3644148,245.175888088 L325.7099312,245.244101584 L326.0554476,245.305134712 L326.400964,245.346283744 L326.7464804,245.357054296 L327.0919968,245.336065528 L327.4375132,245.390194456 L327.7825402,245.376386056 L328.1280566,245.34338398 L328.473573,245.314800592 L328.8190894,245.31024382 L329.1646058,245.274480064 L329.5101222,245.166360292 L329.8556386,245.01060154 L330.201155,244.77309706 L330.5466714,244.15862326 L330.8921878,242.712331444 L331.2377042,240.418894288 L331.5832206,240.908678236 L331.928737,243.488363524 L332.2742534,244.701431464 L332.6192804,245.13280588 L332.9647968,245.40068884 L333.3103132,245.587378408 L333.6558296,245.69411734 L334.001346,245.714001436 L334.3468624,245.685556132 L334.6923788,245.738442304 L335.0378952,245.797542256 L335.3834116,245.82115462 L335.728928,245.847804832 L336.0744444,245.850566512 L336.4199608,245.813145748 L336.7654772,245.780972176 L337.1105042,245.757774064 L337.4560206,245.782214932 L337.801537,245.75763598 L338.1470534,245.66926222 L338.4925698,245.614857124 L338.8380862,245.472906772 L339.1836026,245.32129054 L339.529119,245.071910836 L339.8746354,244.630456288 L340.2201518,243.953430436 L340.5656682,242.862152584 L340.9111846,240.779155444 L341.256701,236.411972776 L341.601728,230.293332652 L341.9472444,228.23270512 L342.2927608,233.974514008 L342.6382772,240.4559008 L342.9837936,243.100347484 L343.32931,244.19659636 L343.6748264,244.833992104 L344.0203428,245.282903188 L344.3658592,245.599667884 L344.7113756,245.822949712 L345.056892,245.946258724 L345.4024084,246.050788312 L345.7479248,246.097184536 L346.0929518,246.145790104 L346.4384682,246.198952444 L346.7839846,246.194809924 L347.129501,246.162498268 L347.4750174,246.13253404 L347.8205338,246.030766132 L348.1660502,245.836758112 L348.5115666,245.627975104 L348.857083,245.362577656 L349.2025994,244.977047128 L349.5481158,244.445423728 L349.8936322,243.676848184 L350.2391486,242.532131824 L350.5841756,240.712184704 L350.929692,237.5181637 L351.2752084,231.354370108 L351.6207248,221.653969108 L351.9662412,218.645947252 L352.3117576,227.060648128 L352.657274,235.856460844 L353.0027904,240.097848988 L353.3483068,242.155300588 L353.6938232,243.454256776 L354.0393396,244.339927552 L354.384856,244.978013716 L354.7303724,245.483124988 L355.0753994,245.841452968 L355.4209158,246.139300156 L355.7664322,246.409254376 L356.1119486,246.630464944 L356.457465,246.785119024 L356.8029814,246.881363572 L357.1484978,246.95137216 L357.4940142,247.000806232 L357.8395306,247.103402644 L358.185047,247.1840437 L358.5305634,247.198404436 L358.8760798,247.184457952 L359.2215962,247.239829636 L359.5671126,247.295477488 L359.9121396,247.328893816 L360.257656,247.348915996 L360.6031724,247.38702718 L360.9486888,247.46849674 L361.2942052,247.496251624 L361.6397216,247.51268362 L361.985238,247.519035484 L362.3307544,247.561289188 L362.6762708,247.609618588 L363.0217872,247.613208772 L363.3673036,247.644691924 L363.71282,247.686807544 L364.0583364,247.681422268 L364.4033634,247.674794236 L364.7488798,247.669961296 L365.0943962,247.661538172 L365.4399126,247.640273236 L365.785429,247.655462476 L366.1309454,247.656705232 L366.4764618,247.679351008 L366.8219782,247.669270876 L367.1674946,247.648420192 L367.513011,247.595395936 L367.8585274,247.52856328 L368.2040438,247.473743932 L368.5495602,247.438394428 L368.8945872,247.319089852 L369.2401036,247.1391664 L369.58562,246.87542596 L369.9311364,246.415882408 L370.2766528,245.263847596 L370.6221692,242.12809804 L370.9676856,240.834112876 L371.313202,243.772954648 L371.6587184,245.673818992 L372.0042348,246.540710344 L372.3497512,246.94170628 L372.6952676,247.176587164 L373.040784,247.315085416 L373.385811,247.375428124 L373.7313274,247.441294192 L374.0768438,247.474848604 L374.4223602,247.507712596 L374.7678766,247.520002072 L375.113393,247.497632464 L375.4589094,247.437565924 L375.8044258,247.290644548 L376.1499422,247.149798868 L376.4954586,246.974017936 L376.840975,246.769377448 L377.1864914,246.512403124 L377.5320078,246.15324664 L377.8770348,245.640540748 L378.2225512,244.901791348 L378.5680676,243.806647144 L378.913584,241.948036504 L379.2591004,237.89858512 L379.6046168,228.63660082 L379.9501332,215.422238188 L380.2956496,216.18832822 L380.641166,229.818461776 L380.9866824,239.791164424 L381.3321988,243.083225068 L381.6777152,244.447633072 L382.0232316,245.290359724 L382.368748,245.884397092 L382.713775,246.34242172 L383.0592914,246.669128464 L383.4048078,246.89268646 L383.7503242,247.08117112 L384.0958406,247.209865408 L384.441357,247.291334968 L384.7868734,247.321023028 L385.1323898,247.256675884 L385.4779062,247.20958924 L385.8234226,247.1011933 L386.168939,246.901523836 L386.5144554,246.639026152 L386.8599718,246.247419928 L387.2049988,245.669124136 L387.5505152,244.745618344 L387.8960316,243.160690192 L388.241548,240.074374708 L388.5870644,235.053916636 L388.9325808,232.231755844 L389.2780972,236.186481604 L389.6236136,241.51983802 L389.96913,244.224627412 L390.3146464,245.47249252 L390.6601628,246.173683072 L391.0056792,246.68072752 L391.3511956,247.085037472 L391.6962226,247.374323452 L392.041739,247.54513336 L392.3872554,247.658224156 L392.7327718,247.817711176 L393.0782882,247.955795176 L393.4238046,248.053420564 L393.769321,248.092360252 L394.1148374,248.076480592 L394.4603538,248.050244632 L394.8058702,248.019037648 L395.1513866,247.936325332 L395.496903,247.732099096 L395.8424194,247.480095796 L396.1874464,247.10050288 L396.5329628,246.406768864 L396.8784792,245.153242312 L397.2239956,243.500100664 L397.569512,242.86753786 L397.9150284,244.189139824 L398.2605448,245.942392372 L398.6060612,246.970565836 L398.9515776,247.489623592 L399.297094,247.816192252 L399.6426104,248.016966388 L399.9881268,248.157950152 L400.3336432,248.276840476 L400.6786702,248.359690876 L401.0241866,248.401392244 L401.369703,248.423485684 L401.7152194,248.39711164 L402.0607358,248.37639904 L402.4062522,248.329174312 L402.7517686,248.213874172 L403.097285,248.084213296 L403.4428014,247.907465776 L403.7883178,247.657395652 L404.1338342,247.280288248 L404.4793506,246.667885708 L404.824867,245.600358304 L405.169894,243.534759748 L405.5154104,240.31505512 L405.8609268,238.53929488 L406.2064432,240.957007636 L406.5519596,244.251277624 L406.897476,245.966418988 L407.2429924,246.8215732 L407.5885088,247.34767324 L407.9340252,247.668442372 L408.2795416,247.872254356 L408.625058,248.005229248 L408.9705744,248.08297054 L409.3160908,248.079242272 L409.6616072,248.0125477 L410.0066342,247.950962236 L410.3521506,247.864383568 L410.697667,247.683079276 L411.0431834,247.438532512 L411.3886998,247.125496084 L411.7342162,246.660153004 L412.0797326,246.019167076 L412.425249,245.005906684 L412.7707654,243.31216834 L413.1162818,240.0520051 L413.4617982,233.516213212 L413.8073146,227.492989132 L414.152831,229.102358152 L414.497858,235.842238192 L414.8433744,241.144111456 L415.1888908,243.819488956 L415.5344072,245.22256048 L415.8799236,246.113064196 L416.22544,246.714005764 L416.5709564,247.157393488 L416.9164728,247.506055588 L417.2619892,247.767586684 L417.6075056,247.955657092 L417.953022,248.084213296 L418.2985384,248.144832172 L418.6440548,248.151598288 L418.9890818,248.125224244 L419.3345982,248.070128728 L419.6801146,247.932597064 L420.025631,247.6328167 L420.3711474,247.192742992 L420.7166638,246.564460792 L421.0621802,245.552719324 L421.4076966,243.413936248 L421.753213,238.97909242 L422.0987294,235.255243108 L422.4442458,237.401896972 L422.7897622,243.939345868 L423.1352786,246.769377448 L423.4803056,247.509783856 L423.825822,247.941710608 L424.1713384,248.304043024 L424.5168548,248.566816876 L424.8623712,248.754887284 L425.2078876,248.882200732 L425.553404,248.99018242 L425.8989204,249.086703136 L426.2444368,249.176043484 L426.5899532,249.268974016 L426.9354696,249.32641696 L427.280986,249.357071608 L427.6265024,249.40995778 L427.9715294,249.486870568 L428.3170458,249.508273588 L428.6625622,249.527881516 L429.0080786,249.551908132 L429.353595,249.545694352 L429.6991114,249.51973456 L430.0446278,249.522910492 L430.3901442,249.497364952 L430.7356606,249.552460468 L431.081177,249.575796664 L431.4266934,250.33512058 L431.7722098,252.21582466 L432.1177262,253.797300712 L432.4627532,254.809194072 L432.8082696,255.675726406 L433.153786,256.44145742 L433.4993024,257.183327518 L433.8448188,257.861430425 L434.1903352,258.378844982 L434.5358516,259.050457941 L434.881368,259.603070109 L435.2268844,260.341874742 L435.5724008,261.212176769 L435.9179172,262.22104609 L436.2634336,263.647785212 L436.60895,265.825148957 L436.9544664,267.591170133 L437.2994934,267.907 L437.6450098,267.907 L437.9905262,267.907 L438.3360426,267.907 L438.681559,267.907 L439.0270754,267.907 L439.3725918,267.907 L439.7181082,267.907 L440.0636246,267.907 L440.409141,267.907 L440.7546574,267.907 L441.1001738,267.907 L441.4456902,267.907 L441.7907172,267.907 L442.1362336,267.907 L442.48175,267.907 L442.8272664,267.907 L443.1727828,267.907 L443.5182992,267.907 L443.8638156,267.907 L444.209332,267.907 L444.5548484,267.907 L444.9003648,267.907 L445.2458812,267.907 L445.5913976,267.907 L445.936914,267.907 L446.281941,267.907 L446.6274574,267.907 L446.9729738,267.907 L447.3184902,267.907 L447.6640066,267.907 L448.009523,267.907 L448.3550394,267.907 L448.7005558,267.907 L449.0460722,267.907 L449.3915886,267.907 L449.737105,267.907 L450.0826214,267.907 L450.4281378,267.907 L450.7731648,267.907 L451.1186812,267.907 L451.4641976,267.907 L451.809714,267.907 L452.1552304,267.907 L452.5007468,267.907 L452.8462632,267.907 L453.1917796,267.907 L453.537296,267.907 L453.8828124,267.907 L454.2283288,267.907 L454.5738452,267.907 L454.9193616,267.907 L455.2643886,267.907 L455.609905,267.907 L455.9554214,267.907 L456.3009378,267.907 L456.6464542,267.907 L456.9919706,267.907 L457.337487,267.907 L457.6830034,267.907 L458.0285198,267.907 L458.3740362,267.907 L458.7195526,267.907 L459.065069,267.907 L459.4105854,267.907 L459.7561018,267.907 L460.1011288,267.907 L460.4466452,267.907 L460.7921616,267.907 L461.137678,267.907 L461.4831944,267.907 L461.8287108,267.907 L462.1742272,267.907 L462.5197436,267.907 L462.86526,267.907 L463.2107764,267.907 L463.5562928,267.907 L463.9018092,267.907 L464.2473256,267.907 L464.5923526,267.907 L464.937869,267.907 L465.2833854,267.907 L465.6289018,267.907 L465.9744182,267.907 L466.3199346,267.907 L466.665451,267.907 L467.0109674,267.907 L467.3564838,267.907 L467.7020002,267.907 L468.0475166,267.907 L468.393033,267.907 L468.7385494,267.907 L469.0835764,267.907 L469.4290928,267.907 L469.7746092,267.907 L470.1201256,267.907 L470.465642,267.907 L470.8111584,267.907 L471.1566748,267.907 L471.5021912,267.907 L471.8477076,267.907 L472.193224,267.907 L472.5387404,267.907 L472.8842568,267.907 L473.2297732,267.907 L473.5748002,267.907 L473.9203166,267.907 L474.265833,267.907 L474.6113494,267.907 L474.9568658,267.907 L475.3023822,267.907 L475.6478986,267.907 L475.993415,267.907 L476.3389314,267.907 L476.6844478,267.907 L477.0299642,267.907 L477.3754806,267.907 L477.720997,267.907 L478.066024,267.907 L478.4115404,267.907 L478.7570568,267.907 L479.1025732,267.907 L479.4480896,267.907 L479.793606,267.907 L480.1391224,267.907 L480.4846388,267.907 L480.8301552,267.907 L481.1756716,267.907 L481.521188,267.907 L481.8667044,267.907 L482.2122208,267.907 L482.5572478,267.907 L482.9027642,267.907 L483.2482806,267.907 L483.593797,267.907 L483.9393134,267.907 L484.2848298,267.907 L484.6303462,267.907 L484.9758626,267.907 L485.321379,267.907 L485.6668954,267.907 L486.0124118,267.907 L486.3579282,267.907 L486.7034446,267.907 L487.048961,267.907 L487.393988,267.907 L487.7395044,267.907 L488.0850208,267.907 L488.4305372,267.907 L488.7760536,267.907 L489.12157,267.907 L489.4670864,267.907 L489.8126028,267.907 L490.1581192,267.907 L490.5036356,267.907 L490.849152,267.907 L491.1946684,267.907 L491.5401848,267.907 L491.8852118,267.907 L492.2307282,267.907 L492.5762446,267.907 L492.921761,267.907 L493.2672774,267.907 L493.6127938,267.907 L493.9583102,267.907 L494.3038266,267.907 L494.649343,267.907 L494.9948594,267.907 L495.3403758,267.907 L495.6858922,267.907 L496.0314086,267.907 L496.3764356,267.907 L496.721952,267.907 L497.0674684,267.907 L497.4129848,267.907 L497.7585012,267.907 L498.1040176,267.907 L498.449534,267.907 L498.7950504,267.907 L499.1405668,267.907 L499.4860832,267.907 L499.8315996,267.907 L500.177116,267.907 L500.5226324,267.907 L500.8676594,267.907 L501.2131758,267.907 L501.5586922,267.907 L501.9042086,267.907 L502.249725,267.907 L502.5952414,267.907 L502.9407578,267.907 L503.2862742,267.907 L503.6317906,267.907 L503.977307,267.907 L504.3228234,267.907 L504.6683398,267.907 L505.0138562,267.907 L505.3588832,267.907 L505.7043996,267.907 L506.049916,267.907 L506.3954324,267.907 L506.7409488,267.907 L507.0864652,267.907 L507.4319816,267.907 L507.777498,267.907 L508.1230144,267.907 L508.4685308,267.907 L508.8140472,267.907 L509.1595636,267.907 L509.50508,267.907 L509.850107,267.907 L510.1956234,267.907 L510.5411398,267.907 L510.8866562,267.907 L511.2321726,267.907 L511.577689,267.907 L511.9232054,267.907 L512.2687218,267.907 L512.6142382,267.907 L512.9597546,267.907 L513.305271,267.907 L513.6507874,267.907 L513.9963038,267.907 L514.3418202,267.907 L514.6868472,267.907 L515.0323636,267.907 L515.37788,267.907 L515.7233964,267.907 L516.0689128,267.907 L516.4144292,267.907 L516.7599456,267.907 L517.105462,267.907 L517.4509784,267.907 L517.7964948,267.907 L518.1420112,267.907 L518.4875276,267.907 L518.833044,267.907 L519.178071,267.907 L519.5235874,267.907 L519.8691038,267.907 L520.2146202,267.907 L520.5601366,267.907 L520.905653,267.907 L521.2511694,267.907 L521.5966858,267.907 L521.9422022,267.907 L522.2877186,267.907 L522.633235,267.907 L522.9787514,267.907 L523.3242678,267.907 L523.6692948,267.907 L524.0148112,267.907 L524.3603276,267.907 L524.705844,267.907 L525.0513604,267.907 L525.3968768,267.907 L525.7423932,267.907 L526.0879096,267.907 L526.433426,267.907 L526.7789424,267.907 L527.1244588,267.907 L527.4699752,267.907 L527.8154916,267.907 L528.1605186,267.907 L528.506035,267.907 L528.8515514,267.907 L529.1970678,267.907 L529.5425842,267.907 L529.8881006,267.907 L530.233617,267.907 L530.5791334,267.907 L530.9246498,267.907 L531.2701662,267.907 L531.6156826,267.907 L531.961199,267.907 L532.3067154,267.907 L532.6517424,267.907 L532.9972588,267.907 L533.3427752,267.907 L533.6882916,267.907 L534.033808,267.907 L534.3793244,267.907 L534.7248408,267.907 L535.0703572,267.907 L535.4158736,267.907 L535.76139,267.907 L536.1069064,267.907 L536.4524228,267.907 L536.7979392,267.907 L537.1434556,267.907 L537.4884826,267.907 L537.833999,267.907 L538.1795154,267.907 L538.5250318,267.907 L538.8705482,267.907 L539.2160646,267.907 L539.561581,267.907 L539.9070974,267.907 L540.2526138,267.907 L540.5981302,267.907 L540.9436466,267.907 L541.289163,267.907 L541.6346794,267.907 L541.9797064,267.907 L542.3252228,267.907 L542.6707392,267.907 L543.0162556,267.907 L543.361772,267.907 L543.7072884,267.907 L544.0528048,267.907 L544.3983212,267.907 L544.7438376,267.907 L545.089354,267.907 L545.4348704,267.907 L545.7803868,267.907 L546.1259032,267.907 L546.4709302,267.907 L546.8164466,267.907 L547.161963,267.907 L547.5074794,267.907 L547.8529958,267.907 L548.1985122,267.907 L548.5440286,267.907 L548.889545,267.907 L549.2350614,267.907 L549.5805778,267.907 L549.9260942,267.907 L550.2716106,267.907 L550.617127,267.907 L550.962154,267.907 L551.3076704,267.907 L551.6531868,267.907 L551.9987032,267.907 L552.3442196,267.907 L552.689736,267.907 L553.0352524,267.907 L553.3807688,267.907 L553.7262852,267.907 L554.0718016,267.907 L554.417318,267.907 L554.7628344,267.907 L555.1083508,267.907 L555.4533778,267.907 L555.7988942,267.907 L556.1444106,267.907 L556.489927,267.907 L556.8354434,267.907 L557.1809598,267.907 L557.5264762,267.907 L557.8719926,267.907 L558.217509,267.907 L558.5630254,267.907 " fill-rule="evenodd" vector-effect="non-scaling-stroke"/>
                        </g>
                    </g>
                </g>
                <g fill="none" fill-rule="evenodd" id="InfiniteLine_1" stroke="black" stroke-linecap="square" stroke-linejoin="bevel" stroke-width="1">
                    <g fill="none" font-family=".Lucida Grande UI" font-size="13" font-style="normal" font-weight="400" stroke="#00ff00" stroke-linecap="square" stroke-linejoin="bevel" stroke-opacity="1" stroke-width="1.5">
                        <polyline fill="none" points="75.0647,1.00029388 75.0647,284.199669244" vector-effect="non-scaling-stroke"/>
                    </g>
                </g>
                <g id="PlotDataItem_2">
                    <g fill="none" fill-rule="evenodd" id="PlotCurveItem_2" stroke="black" stroke-linecap="square" stroke-linejoin="bevel" stroke-width="1">
                        <g fill="none" font-family=".Lucida Grande UI" font-size="13" font-style="normal" font-weight="400" stroke="#5dcc28" stroke-dasharray="5.2,2.6" stroke-dashoffset="0" stroke-linecap="square" stroke-linejoin="bevel" stroke-opacity="1" stroke-width="1.3">
                            <path d="M205.6498338,267.907 L205.6498338,17.29282504 " fill-rule="evenodd" vector-effect="non-scaling-stroke"/>
                        </g>
                    </g>
                </g>
                <g id="PlotDataItem_3">
                    <g fill="none" fill-rule="evenodd" id="PlotCurveItem_3" stroke="black" stroke-linecap="square" stroke-linejoin="bevel" stroke-width="1">
                        <g fill="none" font-family=".Lucida Grande UI" font-size="13" font-style="normal" font-weight="400" stroke="#5dcc28" stroke-dasharray="5.2,2.6" stroke-dashoffset="0" stroke-linecap="square" stroke-linejoin="bevel" stroke-opacity="1" stroke-width="1.3">
                            <path d="M225.851287,267.907 L225.851287,137.587739488 " fill-rule="evenodd" vector-effect="non-scaling-stroke"/>
                        </g>
                    </g>
                </g>
                <g id="PlotDataItem_4">
                    <g fill="none" fill-rule="evenodd" id="PlotCurveItem_4" stroke="black" stroke-linecap="square" stroke-linejoin="bevel" stroke-width="1">
                        <g fill="none" font-family=".Lucida Grande UI" font-size="13" font-style="normal" font-weight="400" stroke="#5dcc28" stroke-dasharray="5.2,2.6" stroke-dashoffset="0" stroke-linecap="square" stroke-linejoin="bevel" stroke-opacity="1" stroke-width="1.3">
                            <path d="M288.3090044,267.907 L288.3090044,187.710436396 " fill-rule="evenodd" vector-effect="non-scaling-stroke"/>
                        </g>
                    </g>
                </g>
                <g id="PlotDataItem_5">
                    <g fill="none" fill-rule="evenodd" id="PlotCurveItem_5" stroke="black" stroke-linecap="square" stroke-linejoin="bevel" stroke-width="1">
                        <g fill="none" font-family=".Lucida Grande UI" font-size="13" font-style="normal" font-weight="400" stroke="#5dcc28" stroke-dasharray="5.2,2.6" stroke-dashoffset="0" stroke-linecap="square" stroke-linejoin="bevel" stroke-opacity="1" stroke-width="1.3">
                            <path d="M325.1157996,267.907 L325.1157996,177.685952248 " fill-rule="evenodd" vector-effect="non-scaling-stroke"/>
                        </g>
                    </g>
                </g>
                <g id="PlotDataItem_6">
                    <g fill="none" fill-rule="evenodd" id="PlotCurveItem_6" stroke="black" stroke-linecap="square" stroke-linejoin="bevel" stroke-width="1">
                        <g fill="none" font-family=".Lucida Grande UI" font-size="13" font-style="normal" font-weight="400" stroke="#5dcc28" stroke-dasharray="5.2,2.6" stroke-dashoffset="0" stroke-linecap="square" stroke-linejoin="bevel" stroke-opacity="1" stroke-width="1.3">
                            <path d="M336.2349676,267.907 L336.2349676,237.833271388 " fill-rule="evenodd" vector-effect="non-scaling-stroke"/>
                        </g>
                    </g>
                </g>
                <g id="PlotDataItem_7">
                    <g fill="none" fill-rule="evenodd" id="PlotCurveItem_7" stroke="black" stroke-linecap="square" stroke-linejoin="bevel" stroke-width="1">
                        <g fill="none" font-family=".Lucida Grande UI" font-size="13" font-style="normal" font-weight="400" stroke="#5dcc28" stroke-dasharray="5.2,2.6" stroke-dashoffset="0" stroke-linecap="square" stroke-linejoin="bevel" stroke-opacity="1" stroke-width="1.3">
                            <path d="M376.637874,267.907 L376.637874,252.870204736 " fill-rule="evenodd" vector-effect="non-scaling-stroke"/>
                        </g>
                    </g>
                </g>
                <g id="PlotDataItem_8">
                    <g fill="none" fill-rule="evenodd" id="PlotCurveItem_8" stroke="black" stroke-linecap="square" stroke-linejoin="bevel" stroke-width="1">
                        <g fill="none" font-family=".Lucida Grande UI" font-size="13" font-style="normal" font-weight="400" stroke="#5dcc28" stroke-dasharray="5.2,2.6" stroke-dashoffset="0" stroke-linecap="square" stroke-linejoin="bevel" stroke-opacity="1" stroke-width="1.3">
                            <path d="M403.6963106,267.907 L403.6963106,210.265767376 " fill-rule="evenodd" vector-effect="non-scaling-stroke"/>
                        </g>
                    </g>
                </g>
                <g id="PlotDataItem_9">
                    <g fill="none" fill-rule="evenodd" id="PlotCurveItem_9" stroke="black" stroke-linecap="square" stroke-linejoin="bevel" stroke-width="1">
                        <g fill="none" font-family=".Lucida Grande UI" font-size="13" font-style="normal" font-weight="400" stroke="#5dcc28" stroke-dasharray="5.2,2.6" stroke-dashoffset="0" stroke-linecap="square" stroke-linejoin="bevel" stroke-opacity="1" stroke-width="1.3">
                            <path d="M412.2338936,267.907 L412.2338936,212.771853892 " fill-rule="evenodd" vector-effect="non-scaling-stroke"/>
                        </g>
                    </g>
                </g>
                <g id="PlotDataItem_10">
                    <g fill="none" fill-rule="evenodd" id="PlotCurveItem_10" stroke="black" stroke-linecap="square" stroke-linejoin="bevel" stroke-width="1">
                        <g fill="none" font-family=".Lucida Grande UI" font-size="13" font-style="normal" font-weight="400" stroke="#5dcc28" stroke-dasharray="5.2,2.6" stroke-dashoffset="0" stroke-linecap="square" stroke-linejoin="bevel" stroke-opacity="1" stroke-width="1.3">
                            <path d="M444.41488,267.907 L444.41488,210.265767376 " fill-rule="evenodd" vector-effect="non-scaling-stroke"/>
                        </g>
                    </g>
                </g>
                <g id="PlotDataItem_11">
                    <g fill="none" fill-rule="evenodd" id="PlotCurveItem_11" stroke="black" stroke-linecap="square" stroke-linejoin="bevel" stroke-width="1">
                        <g fill="none" font-family=".Lucida Grande UI" font-size="13" font-style="normal" font-weight="400" stroke="#5dcc28" stroke-dasharray="5.2,2.6" stroke-dashoffset="0" stroke-linecap="square" stroke-linejoin="bevel" stroke-opacity="1" stroke-width="1.3">
                            <path d="M466.819612,267.907 L466.819612,242.845582504 " fill-rule="evenodd" vector-effect="non-scaling-stroke"/>
                        </g>
                    </g>
                </g>
                <g id="PlotDataItem_12">
                    <g fill="none" fill-rule="evenodd" id="PlotCurveItem_12" stroke="black" stroke-linecap="square" stroke-linejoin="bevel" stroke-width="1">
                        <g fill="none" font-family=".Lucida Grande UI" font-size="13" font-style="normal" font-weight="400" stroke="#5dcc28" stroke-dasharray="5.2,2.6" stroke-dashoffset="0" stroke-linecap="square" stroke-linejoin="bevel" stroke-opacity="1" stroke-width="1.3">
                            <path d="M521.0974978,267.907 L521.0974978,242.845582504 " fill-rule="evenodd" vector-effect="non-scaling-stroke"/>
                        </g>
                    </g>
                </g>
                <g id="PlotDataItem_13">
                    <g fill="none" fill-rule="evenodd" id="PlotCurveItem_13" stroke="black" stroke-linecap="square" stroke-linejoin="bevel" stroke-width="1">
                        <g fill="none" font-family=".Lucida Grande UI" font-size="13" font-style="normal" font-weight="400" stroke="#5dcc28" stroke-dasharray="5.2,2.6" stroke-dashoffset="0" stroke-linecap="square" stroke-linejoin="bevel" stroke-opacity="1" stroke-width="1.3">
                            <path d="M527.424461,267.907 L527.424461,242.845582504 " fill-rule="evenodd" vector-effect="non-scaling-stroke"/>
                        </g>
                    </g>
                </g>
                <g id="PlotDataItem_14">
                    <g fill="none" fill-rule="evenodd" id="PlotCurveItem_14" stroke="black" stroke-linecap="square" stroke-linejoin="bevel" stroke-width="1">
                        <g fill="none" font-family=".Lucida Grande UI" font-size="13" font-style="normal" font-weight="400" stroke="#5dcc28" stroke-dasharray="5.2,2.6" stroke-dashoffset="0" stroke-linecap="square" stroke-linejoin="bevel" stroke-opacity="1" stroke-width="1.3">
                            <path d="M551.8939716,267.907 L551.8939716,242.845582504 " fill-rule="evenodd" vector-effect="non-scaling-stroke"/>
                        </g>
                    </g>
                </g>
            </g>
            <g fill="none" fill-rule="evenodd" id="LegendItem_1" stroke="black" stroke-linecap="square" stroke-linejoin="bevel" stroke-width="1">
                <g fill="none" fill-rule="evenodd" id="ItemSample_1" stroke="black" stroke-linecap="square" stroke-linejoin="bevel" stroke-width="1">
                    <g fill="none" font-family=".Lucida Grande UI" font-size="13" font-style="normal" font-weight="400" stroke="#000000" stroke-linecap="square" stroke-linejoin="bevel" stroke-opacity="1" stroke-width="1">
                        <polyline fill="none" points="444.938,21.0 460.938,5.0" vector-effect="non-scaling-stroke"/>
                    </g>
                </g>
                <g fill="none" fill-rule="evenodd" id="LabelItem_1" stroke="black" stroke-linecap="square" stroke-linejoin="bevel" stroke-width="1">
                    <g fill="none" fill-rule="evenodd" id="QGraphicsTextItem_3" stroke="black" stroke-linecap="square" stroke-linejoin="bevel" stroke-width="1">
                        


                        <g fill="none" font-family=".Lucida Grande UI" font-size="13" font-style="normal" font-weight="400" stroke="#000000" stroke-linecap="square" stroke-linejoin="bevel" stroke-opacity="1" stroke-width="1" transform="matrix(1,0,0,1,462.938,3)">
                            <text fill="#000000" fill-opacity="1" font-family="&quot;.Lucida Grande UI&quot;, sans-serif" font-size="13" font-style="normal" font-weight="400" stroke="none" x="4" xml:space="preserve" y="14">LaB6_p49_001</text>
                        </g>
                        


                        

                    </g>
                </g>
            </g>
            <g fill="none" fill-rule="evenodd" id="LegendItem_2" stroke="black" stroke-linecap="square" stroke-linejoin="bevel" stroke-width="1">
                <g fill="none" fill-rule="evenodd" id="ItemSample_2" stroke="black" stroke-linecap="square" stroke-linejoin="bevel" stroke-width="1">
                    <g fill="none" font-family=".Lucida Grande UI" font-size="13" font-style="normal" font-weight="400" stroke="#5dcc28" stroke-dasharray="5.2,2.6" stroke-dashoffset="0" stroke-linecap="square" stroke-linejoin="bevel" stroke-opacity="1" stroke-width="1.3">
                        <polyline fill="none" points="66.8,21.0 82.8,5.0" vector-effect="non-scaling-stroke"/>
                    </g>
                </g>
                <g fill="none" fill-rule="evenodd" id="LabelItem_2" stroke="black" stroke-linecap="square" stroke-linejoin="bevel" stroke-width="1">
                    <g fill="none" fill-rule="evenodd" id="QGraphicsTextItem_4" stroke="black" stroke-linecap="square" stroke-linejoin="bevel" stroke-width="1">
                        


                        


                        <g fill="none" font-family=".Lucida Grande UI" font-size="13" font-style="normal" font-weight="400" stroke="#5dcc28" stroke-linecap="square" stroke-linejoin="bevel" stroke-opacity="1" stroke-width="1" transform="matrix(1,0,0,1,84.8,3)">
                            <text fill="#5dcc28" fill-opacity="1" font-family="&quot;.Lucida Grande UI&quot;, sans-serif" font-size="13" font-style="normal" font-weight="400" stroke="none" x="4" xml:space="preserve" y="14">au_Anderson</text>
                        </g>
                        


                        

                    </g>
                </g>
            </g>
        </g>
    </g>
</g>

</svg>
